<?xml version="1.0" encoding="UTF-8" standalone="no"?>
<!-- Generator: Adobe Illustrator 19.0.0, SVG Export Plug-In . SVG Version: 6.00 Build 0)  -->

<svg
   xmlns:dc="http://purl.org/dc/elements/1.1/"
   xmlns:cc="http://creativecommons.org/ns#"
   xmlns:rdf="http://www.w3.org/1999/02/22-rdf-syntax-ns#"
   xmlns:svg="http://www.w3.org/2000/svg"
   xmlns="http://www.w3.org/2000/svg"
   xmlns:sodipodi="http://sodipodi.sourceforge.net/DTD/sodipodi-0.dtd"
   xmlns:inkscape="http://www.inkscape.org/namespaces/inkscape"
   version="1.1"
   id="Capa_1"
   x="0px"
   y="0px"
   viewBox="0 0 58 58"
   style="enable-background:new 0 0 58 58;"
   xml:space="preserve"
   sodipodi:docname="compose.svg"
   inkscape:version="0.92.3 (2405546, 2018-03-11)"><metadata
   id="metadata49"><rdf:RDF><cc:Work
       rdf:about=""><dc:format>image/svg+xml</dc:format><dc:type
         rdf:resource="http://purl.org/dc/dcmitype/StillImage" /></cc:Work></rdf:RDF></metadata><defs
   id="defs47" /><sodipodi:namedview
   pagecolor="#ffffff"
   bordercolor="#666666"
   borderopacity="1"
   objecttolerance="10"
   gridtolerance="10"
   guidetolerance="10"
   inkscape:pageopacity="0"
   inkscape:pageshadow="2"
   inkscape:window-width="1853"
   inkscape:window-height="1052"
   id="namedview45"
   showgrid="false"
   inkscape:zoom="11.508772"
   inkscape:cx="39.896443"
   inkscape:cy="28.462444"
   inkscape:window-x="67"
   inkscape:window-y="0"
   inkscape:window-maximized="1"
   inkscape:current-layer="g868" />





<g
   id="g868"
   transform="translate(-1.6509146,-0.08689024)"><g
     id="g877"
     transform="matrix(0.93430758,0,0,0.93430758,3.7571686,3.7923247)"><path
       transform="translate(1.6509146,0.08689024)"
       inkscape:transform-center-y="-2.7218595"
       inkscape:transform-center-x="-0.35459941"
       d="M 27.962523,57.287548 C 23.452376,57.365759 3.9852815,46.572071 1.6624755,42.705275 -0.6603304,38.838479 -1.0462704,16.582636 1.1410705,12.637629 3.3284115,8.6926219 22.409566,-2.7695331 26.919713,-2.8477439 31.42986,-2.9259546 50.896955,7.8677327 53.219761,11.734529 c 2.322806,3.866797 2.708746,26.122639 0.521405,30.067646 -2.187341,3.945007 -21.268496,15.407162 -25.778643,15.485373 z"
       inkscape:randomized="0"
       inkscape:rounded="0.15"
       inkscape:flatsided="true"
       sodipodi:arg2="2.0770558"
       sodipodi:arg1="1.553457"
       sodipodi:r2="16.027941"
       sodipodi:r1="30.072166"
       sodipodi:cy="27.219902"
       sodipodi:cx="27.441118"
       sodipodi:sides="6"
       id="path856"
       style="fill:#23a24d;fill-opacity:1;stroke:#010000;stroke-width:0.707192;stroke-linejoin:miter;stroke-miterlimit:4;stroke-dasharray:none;stroke-opacity:1"
       sodipodi:type="star" /><path
       inkscape:connector-curvature="0"
       style="fill:#ebd6bd"
       d="M 29,0 C 21.243,0 14.204,3.051 9,8.011 V 26 L 28.951,50.993 C 28.971,51.009 29,50.995 29,50.97 c 0,0.025 0.029,0.04 0.049,0.023 L 49,26 V 8.011 C 43.796,3.051 36.757,0 29,0 Z"
       id="path4" /><path
       inkscape:connector-curvature="0"
       style="fill:#4c4c4c"
       d="m 29,35 c -3.748,0 -7.093,1.72 -9.294,4.412 l 9.245,11.581 C 28.971,51.009 29,50.995 29,50.97 c 0,0.025 0.029,0.04 0.049,0.023 L 38.294,39.412 C 36.093,36.72 32.748,35 29,35 Z"
       id="path6" /><path
       sodipodi:nodetypes="scccccccs"
       inkscape:connector-curvature="0"
       style="fill:#ebba16"
       d="m 28.82622,-2.519817 c -3.516,0 -6.426827,2.066689 -9.978278,4.0825914 L 19,18 l 9.951,7.961 c 0.02,0.016 0.049,0.001 0.049,-0.024 0,0.025 0.029,0.04 0.049,0.024 L 39,18 C 39,12.593333 39.043445,1.3648365 39.043445,1.4541616 36.274006,-0.1272896 32.34222,-2.519817 28.82622,-2.519817 Z"
       id="path8" /><path
       sodipodi:nodetypes="ccccsc"
       inkscape:connector-curvature="0"
       style="fill:#ed8a19"
       d="M 9.432,25.654 19,18 19.08689,1.4758842 C 15.284445,3.1205549 11.845,5.3 9,8.011 v 17.435 c 0,0.223 0.258,0.347 0.432,0.208 z"
       id="path10" /><path
       sodipodi:nodetypes="ccsccc"
       inkscape:connector-curvature="0"
       style="fill:#ed8a19"
       d="m 39,18 9.568,7.654 c 0.174,0.139 0.430123,0.01499 0.432,-0.208 L 49.152058,7.3810458 C 45.916052,5.0393293 42.67211,3.1422774 39.043445,1.4541616 Z"
       id="path12" /></g></g>
<g
   id="g14">
</g>
<g
   id="g16">
</g>
<g
   id="g18">
</g>
<g
   id="g20">
</g>
<g
   id="g22">
</g>
<g
   id="g24">
</g>
<g
   id="g26">
</g>
<g
   id="g28">
</g>
<g
   id="g30">
</g>
<g
   id="g32">
</g>
<g
   id="g34">
</g>
<g
   id="g36">
</g>
<g
   id="g38">
</g>
<g
   id="g40">
</g>
<g
   id="g42">
</g>
</svg>